<svg xmlns="http://www.w3.org/2000/svg" xmlns:xlink="http://www.w3.org/1999/xlink" width="1920" zoomAndPan="magnify" viewBox="0 0 1440 809.999993" height="1080" preserveAspectRatio="xMidYMid meet" version="1.0"><defs><clipPath id="4448231ccd"><path d="M 612.625 297.488281 L 826.761719 297.488281 L 826.761719 511.625 L 612.625 511.625 Z M 612.625 297.488281 " clip-rule="nonzero"/></clipPath><clipPath id="35312f8966"><path d="M 635.125 297.488281 L 804.261719 297.488281 C 810.230469 297.488281 815.953125 299.859375 820.171875 304.078125 C 824.390625 308.296875 826.761719 314.019531 826.761719 319.988281 L 826.761719 489.125 C 826.761719 495.09375 824.390625 500.816406 820.171875 505.035156 C 815.953125 509.253906 810.230469 511.625 804.261719 511.625 L 635.125 511.625 C 629.15625 511.625 623.433594 509.253906 619.214844 505.035156 C 614.996094 500.816406 612.625 495.09375 612.625 489.125 L 612.625 319.988281 C 612.625 314.019531 614.996094 308.296875 619.214844 304.078125 C 623.433594 299.859375 629.15625 297.488281 635.125 297.488281 Z M 635.125 297.488281 " clip-rule="nonzero"/></clipPath><clipPath id="cd49d8bb2d"><path d="M 612.625 335.429688 L 826.761719 335.429688 L 826.761719 366.792969 L 612.625 366.792969 Z M 612.625 335.429688 " clip-rule="nonzero"/></clipPath><clipPath id="4830cd0060"><path d="M 612.625 297.488281 L 826.769531 297.488281 L 826.769531 366.792969 L 612.625 366.792969 Z M 612.625 297.488281 " clip-rule="nonzero"/></clipPath><clipPath id="eae66c39d0"><path d="M 635.125 297.488281 L 804.261719 297.488281 C 810.230469 297.488281 815.953125 299.859375 820.171875 304.078125 C 824.390625 308.296875 826.761719 314.019531 826.761719 319.988281 L 826.761719 344.292969 C 826.761719 350.261719 824.390625 355.984375 820.171875 360.203125 C 815.953125 364.421875 810.230469 366.792969 804.261719 366.792969 L 635.125 366.792969 C 629.15625 366.792969 623.433594 364.421875 619.214844 360.203125 C 614.996094 355.984375 612.625 350.261719 612.625 344.292969 L 612.625 319.988281 C 612.625 314.019531 614.996094 308.296875 619.214844 304.078125 C 623.433594 299.859375 629.15625 297.488281 635.125 297.488281 Z M 635.125 297.488281 " clip-rule="nonzero"/></clipPath></defs><g clip-path="url(#4448231ccd)"><g clip-path="url(#35312f8966)"><path fill="#f1f1f1" d="M 612.625 297.488281 L 826.761719 297.488281 L 826.761719 511.625 L 612.625 511.625 Z M 612.625 297.488281 " fill-opacity="1" fill-rule="nonzero"/></g></g><g clip-path="url(#cd49d8bb2d)"><path fill="#e73f5a" d="M 612.625 335.429688 L 826.792969 335.429688 L 826.792969 366.792969 L 612.625 366.792969 Z M 612.625 335.429688 " fill-opacity="1" fill-rule="nonzero"/></g><g clip-path="url(#4830cd0060)"><g clip-path="url(#eae66c39d0)"><path fill="#e73f5a" d="M 612.625 297.488281 L 826.769531 297.488281 L 826.769531 366.792969 L 612.625 366.792969 Z M 612.625 297.488281 " fill-opacity="1" fill-rule="nonzero"/></g></g></svg>