<svg xmlns="http://www.w3.org/2000/svg" xmlns:xlink="http://www.w3.org/1999/xlink" width="500" zoomAndPan="magnify" viewBox="0 0 375 374.999991" height="500" preserveAspectRatio="xMidYMid meet" version="1.0"><defs><clipPath id="d2d430c43a"><path d="M 15.925781 15.925781 L 359.074219 15.925781 L 359.074219 359.074219 L 15.925781 359.074219 Z M 15.925781 15.925781 " clip-rule="nonzero"/></clipPath><clipPath id="ba3a31fb03"><path d="M 49.675781 15.925781 L 325.324219 15.925781 C 334.277344 15.925781 342.859375 19.480469 349.191406 25.808594 C 355.519531 32.140625 359.074219 40.722656 359.074219 49.675781 L 359.074219 325.324219 C 359.074219 334.277344 355.519531 342.859375 349.191406 349.191406 C 342.859375 355.519531 334.277344 359.074219 325.324219 359.074219 L 49.675781 359.074219 C 40.722656 359.074219 32.140625 355.519531 25.808594 349.191406 C 19.480469 342.859375 15.925781 334.277344 15.925781 325.324219 L 15.925781 49.675781 C 15.925781 40.722656 19.480469 32.140625 25.808594 25.808594 C 32.140625 19.480469 40.722656 15.925781 49.675781 15.925781 Z M 49.675781 15.925781 " clip-rule="nonzero"/></clipPath><clipPath id="732c908858"><path d="M 15.925781 76.722656 L 359.074219 76.722656 L 359.074219 126.984375 L 15.925781 126.984375 Z M 15.925781 76.722656 " clip-rule="nonzero"/></clipPath><clipPath id="0ed23691ab"><path d="M 15.925781 15.925781 L 359.085938 15.925781 L 359.085938 126.984375 L 15.925781 126.984375 Z M 15.925781 15.925781 " clip-rule="nonzero"/></clipPath><clipPath id="163e921db7"><path d="M 49.675781 15.925781 L 325.324219 15.925781 C 334.277344 15.925781 342.859375 19.480469 349.191406 25.808594 C 355.519531 32.140625 359.074219 40.722656 359.074219 49.675781 L 359.074219 93.234375 C 359.074219 102.1875 355.519531 110.769531 349.191406 117.101562 C 342.859375 123.429688 334.277344 126.984375 325.324219 126.984375 L 49.675781 126.984375 C 40.722656 126.984375 32.140625 123.429688 25.808594 117.101562 C 19.480469 110.769531 15.925781 102.1875 15.925781 93.234375 L 15.925781 49.675781 C 15.925781 40.722656 19.480469 32.140625 25.808594 25.808594 C 32.140625 19.480469 40.722656 15.925781 49.675781 15.925781 Z M 49.675781 15.925781 " clip-rule="nonzero"/></clipPath></defs><g clip-path="url(#d2d430c43a)"><g clip-path="url(#ba3a31fb03)"><path fill="#f1f1f1" d="M 15.925781 15.925781 L 359.074219 15.925781 L 359.074219 359.074219 L 15.925781 359.074219 Z M 15.925781 15.925781 " fill-opacity="1" fill-rule="nonzero"/></g></g><g clip-path="url(#732c908858)"><path fill="#e73f5a" d="M 15.925781 76.722656 L 359.125 76.722656 L 359.125 126.984375 L 15.925781 126.984375 Z M 15.925781 76.722656 " fill-opacity="1" fill-rule="nonzero"/></g><g clip-path="url(#0ed23691ab)"><g clip-path="url(#163e921db7)"><path fill="#e73f5a" d="M 15.925781 15.925781 L 359.085938 15.925781 L 359.085938 126.984375 L 15.925781 126.984375 Z M 15.925781 15.925781 " fill-opacity="1" fill-rule="nonzero"/></g></g></svg>