<svg width="170" height="167" viewBox="0 0 170 167" fill="none" xmlns="http://www.w3.org/2000/svg">
<path d="M85 1C38.6824 1 1 38.0095 1 83.5C1 103.424 8.2296 121.72 20.2472 135.992C20.278 136.033 20.2808 136.086 20.3144 136.124C28.9916 146.401 39.8892 154.28 52.0328 159.37C52.1728 159.428 52.31 159.491 52.45 159.548C53.4328 159.955 54.4268 160.332 55.4236 160.701C55.8156 160.847 56.2076 160.995 56.6052 161.135C57.4648 161.438 58.33 161.724 59.2008 161.999C59.758 162.175 60.3152 162.348 60.878 162.513C61.648 162.738 62.4208 162.956 63.1992 163.162C63.8824 163.343 64.5712 163.511 65.26 163.673C65.9572 163.838 66.6572 164.003 67.36 164.149C68.144 164.314 68.9364 164.46 69.7316 164.603C70.37 164.719 71.0056 164.84 71.6496 164.941C72.5316 165.082 73.4192 165.192 74.3096 165.304C74.8836 165.376 75.4548 165.458 76.0316 165.519C77.0396 165.623 78.056 165.698 79.0752 165.766C79.5484 165.799 80.0188 165.849 80.4948 165.873C81.9816 165.956 83.4852 166 85 166C86.5148 166 88.0184 165.956 89.5108 165.879C89.9868 165.854 90.4572 165.805 90.9304 165.772C91.9496 165.7 92.966 165.629 93.974 165.524C94.5508 165.464 95.122 165.381 95.696 165.31C96.5864 165.197 97.474 165.087 98.356 164.947C98.9972 164.845 99.6356 164.724 100.274 164.608C101.066 164.465 101.859 164.32 102.646 164.155C103.348 164.006 104.046 163.844 104.746 163.679C105.434 163.514 106.123 163.346 106.806 163.168C107.585 162.964 108.358 162.744 109.128 162.519C109.69 162.354 110.248 162.18 110.805 162.004C111.676 161.729 112.541 161.443 113.4 161.141C113.795 161.001 114.187 160.852 114.582 160.706C115.582 160.338 116.573 159.958 117.556 159.554C117.696 159.496 117.833 159.433 117.973 159.375C130.114 154.285 141.014 146.406 149.691 136.13C149.725 136.091 149.728 136.036 149.758 135.998C161.77 121.72 169 103.424 169 83.5C169 38.0095 131.318 1 85 1ZM101.755 86.8467C100.652 87.5507 99.504 88.1805 98.3252 88.7305C98.1852 88.7965 98.048 88.8652 97.908 88.9285C89.7992 92.5502 80.2008 92.5502 72.092 88.9285C71.952 88.8652 71.812 88.7965 71.6748 88.7305C70.4932 88.1805 69.348 87.5507 68.2448 86.8467C59.8028 81.4457 54.2 72.1095 54.2 61.5C54.2 44.8212 68.018 31.25 85 31.25C101.982 31.25 115.8 44.8212 115.8 61.5C115.8 72.1095 110.197 81.4457 101.755 86.8467ZM67.2032 92.6547C67.4384 92.784 67.6708 92.9215 67.9088 93.0453C68.7432 93.4798 69.5888 93.8867 70.454 94.2525C71.1176 94.5385 71.8036 94.7805 72.4868 95.028C72.6212 95.0748 72.7556 95.127 72.89 95.1737C76.6868 96.4937 80.7496 97.25 85 97.25C89.2504 97.25 93.3132 96.4937 97.1072 95.1737C97.2416 95.127 97.376 95.0748 97.5104 95.028C98.1936 94.7805 98.8796 94.5385 99.5432 94.2525C100.408 93.8867 101.254 93.4798 102.088 93.0453C102.326 92.9188 102.559 92.784 102.794 92.6547C103.194 92.4347 103.603 92.2258 103.995 91.9893C123.707 98.2703 139.026 114.05 144.441 133.622C137.438 141.621 128.809 148.21 119.04 152.855C118.998 152.874 118.958 152.896 118.916 152.916C117.917 153.389 116.9 153.834 115.876 154.269C115.643 154.365 115.414 154.464 115.181 154.56C114.285 154.929 113.378 155.278 112.465 155.613C112.084 155.753 111.704 155.891 111.32 156.023C110.511 156.306 109.699 156.578 108.878 156.837C108.369 156.996 107.856 157.148 107.344 157.296C106.616 157.511 105.885 157.717 105.146 157.909C104.524 158.072 103.897 158.22 103.27 158.366C102.612 158.52 101.957 158.677 101.293 158.814C100.568 158.966 99.8372 159.095 99.1092 159.224C98.5184 159.331 97.9304 159.444 97.334 159.538C96.5136 159.664 95.6848 159.766 94.8588 159.868C94.3352 159.934 93.8144 160.01 93.2852 160.065C92.3416 160.164 91.3896 160.228 90.4404 160.294C90.0176 160.321 89.5976 160.368 89.1692 160.39C87.7832 160.461 86.3944 160.5 85 160.5C83.6056 160.5 82.2168 160.461 80.8336 160.39C80.408 160.368 79.988 160.324 79.5624 160.294C78.6104 160.23 77.6612 160.164 76.7176 160.065C76.1884 160.01 75.6676 159.934 75.144 159.868C74.318 159.766 73.4892 159.664 72.6688 159.538C72.0724 159.444 71.4844 159.331 70.8936 159.224C70.1628 159.095 69.432 158.963 68.7096 158.814C68.046 158.677 67.388 158.52 66.7328 158.366C66.1056 158.217 65.4784 158.072 64.8568 157.909C64.1204 157.717 63.3868 157.508 62.6588 157.296C62.1464 157.148 61.634 156.996 61.1244 156.837C60.304 156.578 59.4892 156.306 58.6828 156.023C58.2992 155.888 57.9184 155.751 57.5376 155.613C56.6248 155.278 55.7176 154.929 54.8216 154.56C54.5892 154.467 54.3624 154.368 54.13 154.271C53.1052 153.84 52.0888 153.391 51.0864 152.918C51.0444 152.899 51.0052 152.88 50.9632 152.858C41.194 148.216 32.5644 141.627 25.5616 133.624C30.974 114.05 46.2956 98.2703 66.0076 91.992C66.3968 92.2258 66.8028 92.4347 67.2032 92.6547ZM148.641 128.388C142.294 109.98 127.812 95.1022 109.31 88.0347C116.71 81.487 121.4 72.0325 121.4 61.5C121.4 41.788 105.07 25.75 85 25.75C64.9296 25.75 48.6 41.788 48.6 61.5C48.6 72.0325 53.29 81.487 60.6932 88.0347C42.1908 95.105 27.7092 109.98 21.3616 128.388C12.0852 115.741 6.6 100.242 6.6 83.5C6.6 41.0427 41.7708 6.5 85 6.5C128.229 6.5 163.4 41.0427 163.4 83.5C163.4 100.242 157.915 115.741 148.641 128.388Z" fill="#3F424D" stroke="#3F424D" stroke-width="2"/>
</svg>
