<svg width="40" height="39" viewBox="0 0 40 39" fill="none" xmlns="http://www.w3.org/2000/svg">
<path d="M22.5333 37.9232H17.4667C16.4191 37.9232 15.5667 37.0949 15.5667 36.0771V32.7337C15.5667 32.4789 15.4058 32.2506 15.167 32.1651C14.8377 32.0475 14.5039 31.9127 14.1752 31.7657C13.9453 31.6623 13.6635 31.7127 13.4779 31.8924L11.0421 34.2543C10.6862 34.6038 10.2087 34.7983 9.69883 34.7989C9.189 34.7989 8.7102 34.6038 8.35173 34.2506L4.77593 30.7767C4.41557 30.4309 4.2148 29.9657 4.2148 29.4703C4.2148 28.9749 4.41493 28.5103 4.7791 28.162L7.20603 25.7983C7.39097 25.6186 7.44353 25.3466 7.3365 25.1213C7.18767 24.8056 7.05023 24.4844 6.92547 24.157C6.83807 23.925 6.60373 23.7693 6.3428 23.7693H2.8981C1.85183 23.7693 1 22.941 1 21.9232V17.0001C1 15.9822 1.85247 15.1539 2.9 15.1539H6.3409C6.6031 15.1539 6.83807 14.9982 6.9261 14.7662C7.05087 14.4382 7.1883 14.117 7.33713 13.8025C7.44417 13.5773 7.3916 13.3047 7.20667 13.125L4.77593 10.7582C4.4162 10.413 4.21543 9.94834 4.21543 9.45296C4.21543 8.95757 4.41557 8.49295 4.7791 8.14403L8.3549 4.66955C8.71083 4.3194 9.18837 4.12494 9.6982 4.12432C10.208 4.12432 10.6868 4.31878 11.0459 4.67202L13.4779 7.03079C13.6635 7.2111 13.9447 7.26156 14.1752 7.15756C14.5039 7.01049 14.8396 6.87572 15.1734 6.75572C15.4083 6.67141 15.5667 6.44679 15.5667 6.19694V2.84432C15.5667 1.82708 16.4191 1 17.4667 1H22.5333C23.5809 1 24.4333 1.82831 24.4333 2.84616V6.18956C24.4333 6.44433 24.5942 6.67264 24.8336 6.75818C25.1648 6.87695 25.4992 7.01172 25.8248 7.15756C26.0572 7.26095 26.3371 7.2111 26.5221 7.03079L28.9579 4.66894C29.3138 4.3194 29.7913 4.12432 30.3012 4.12432C30.811 4.12432 31.2898 4.3194 31.6483 4.67263L35.2241 8.14649C35.5844 8.49234 35.7852 8.95757 35.7852 9.45296C35.7852 9.94834 35.5851 10.413 35.2209 10.7613L32.7933 13.125C32.6084 13.3047 32.5558 13.5767 32.6629 13.8019C32.8155 14.1256 32.9555 14.4524 33.0771 14.7748C33.1632 15.0013 33.3931 15.1539 33.649 15.1539H37.1019C38.1482 15.1539 39 15.9822 39 17.0001V21.9232C39 22.941 38.1475 23.7693 37.1 23.7693H33.6591C33.3969 23.7693 33.1619 23.925 33.0739 24.157C32.9491 24.485 32.8117 24.8063 32.6629 25.1207C32.5558 25.3459 32.6084 25.6179 32.7933 25.7983L35.2241 28.165C35.5838 28.5103 35.7846 28.9749 35.7846 29.4703C35.7846 29.9657 35.5844 30.4303 35.2209 30.7792L31.6451 34.2537C31.2892 34.6038 30.8116 34.7983 30.3018 34.7989C29.792 34.7989 29.3132 34.6044 28.9541 34.2512L26.5221 31.8924C26.3371 31.7127 26.0559 31.6623 25.8248 31.7657C25.4999 31.9109 25.168 32.0451 24.8304 32.1663C24.5929 32.2512 24.4333 32.4771 24.4333 32.7294V36.0789C24.4333 37.0961 23.5809 37.9232 22.5333 37.9232ZM13.9257 30.4826C14.1904 30.4826 14.4571 30.5367 14.7053 30.6481C14.9992 30.7798 15.2988 30.901 15.6047 31.0106C16.34 31.2734 16.8333 31.9663 16.8333 32.7337V36.0771C16.8333 36.4161 17.1171 36.6925 17.4667 36.6925H22.5333C22.8829 36.6925 23.1667 36.4174 23.1667 36.0789V32.7294C23.1667 31.9644 23.6588 31.274 24.3922 31.0118C24.6981 30.9017 24.9995 30.7804 25.2947 30.6481C26.0053 30.33 26.8584 30.4801 27.417 31.021L29.8528 33.3829C29.975 33.5035 30.1333 33.5681 30.3018 33.5681C30.4703 33.5681 30.6286 33.5035 30.747 33.3866L34.3285 29.9066C34.4514 29.7884 34.5185 29.6346 34.5185 29.4709C34.5185 29.3072 34.452 29.154 34.3317 29.0383L31.8972 26.6678C31.3398 26.125 31.1853 25.2961 31.5134 24.6056C31.6489 24.3201 31.7737 24.0284 31.8864 23.7312C32.1562 23.0179 32.8687 22.5385 33.6591 22.5385H37.1C37.4496 22.5385 37.7333 22.2622 37.7333 21.9232V17.0001C37.7333 16.661 37.4502 16.3847 37.1019 16.3847H33.649C32.8649 16.3847 32.1581 15.9084 31.8889 15.1994C31.7749 14.8991 31.6495 14.605 31.5127 14.3164C31.1847 13.6265 31.3398 12.7976 31.8965 12.2548L34.3273 9.88804C34.4508 9.76927 34.5179 9.61604 34.5179 9.45234C34.5179 9.28865 34.4514 9.1348 34.3304 9.01911L30.7496 5.53971C30.628 5.41971 30.4703 5.35571 30.3018 5.35509C30.1333 5.35509 29.9744 5.41971 29.8559 5.53663L27.4163 7.90218C26.8577 8.44372 26.0046 8.59449 25.294 8.27511C25.0002 8.14341 24.7 8.02218 24.3947 7.91264C23.66 7.64926 23.1667 6.95695 23.1667 6.18956V2.84616C23.1667 2.50708 22.8829 2.23077 22.5333 2.23077H17.4667C17.1171 2.23077 16.8333 2.50585 16.8333 2.84432V6.19694C16.8333 6.96064 16.3425 7.64926 15.611 7.9108C15.3032 8.02095 15.0011 8.14218 14.7053 8.27511C13.996 8.59449 13.1423 8.44372 12.583 7.90218L10.1472 5.54033C10.025 5.41971 9.86667 5.35509 9.6982 5.35509C9.69757 5.35509 9.69757 5.35509 9.69757 5.35509C9.5291 5.35509 9.3714 5.41971 9.25297 5.53663L5.67147 9.01665C5.5486 9.1348 5.48147 9.28865 5.48147 9.45234C5.48147 9.61604 5.54797 9.76927 5.6683 9.88496L8.10283 12.2554C8.66017 12.7982 8.8147 13.6265 8.48663 14.317C8.3511 14.6025 8.22633 14.8942 8.1136 15.1921C7.8438 15.9053 7.1313 16.3847 6.3409 16.3847H2.9C2.5504 16.3847 2.26667 16.661 2.26667 17.0001V21.9232C2.26667 22.2622 2.54977 22.5385 2.8981 22.5385H6.34217C7.1313 22.5385 7.84317 23.0179 8.11423 23.7318C8.22697 24.029 8.35173 24.3207 8.48727 24.6069C8.81533 25.2967 8.66017 26.1256 8.10347 26.6684L5.67273 29.0352C5.54923 29.154 5.4821 29.3072 5.4821 29.4709C5.4821 29.6346 5.5486 29.7884 5.66957 29.9041L9.25043 33.3835C9.37203 33.5035 9.52973 33.5675 9.6982 33.5681C9.86667 33.5681 10.0256 33.5035 10.1441 33.3866L12.5837 31.021C12.9466 30.669 13.4342 30.4826 13.9257 30.4826Z" fill="#3F424D" stroke="#3F424D"/>
<path d="M19.9998 28.077C15.1105 28.077 11.1332 24.2124 11.1332 19.4616C11.1332 14.7108 15.1105 10.8462 19.9998 10.8462C24.8892 10.8462 28.8665 14.7108 28.8665 19.4616C28.8665 24.2124 24.8892 28.077 19.9998 28.077ZM19.9998 12.077C15.8091 12.077 12.3998 15.3896 12.3998 19.4616C12.3998 23.5336 15.8091 26.8463 19.9998 26.8463C24.1906 26.8463 27.5998 23.5336 27.5998 19.4616C27.5998 15.3896 24.1906 12.077 19.9998 12.077Z" fill="black" stroke="#3F424D"/>
</svg>
