<svg width="241" height="230" viewBox="0 0 241 230" fill="none" xmlns="http://www.w3.org/2000/svg">
<path d="M120.505 189.598L56.1926 228.698C54.6887 229.613 52.9476 230.064 51.1883 229.993C49.4289 229.922 47.7299 229.332 46.305 228.298C44.88 227.264 43.7928 225.832 43.18 224.182C42.5672 222.531 42.4562 220.737 42.8611 219.024L60.1921 145.785L3.10446 96.7252C1.77002 95.5773 0.804873 94.0607 0.330377 92.3659C-0.144118 90.6712 -0.106776 88.874 0.437707 87.2005C0.98219 85.5269 2.0095 84.0516 3.39047 82.9601C4.77144 81.8686 6.44441 81.2096 8.19902 81.066L83.2247 74.9142L112.268 5.48311C112.947 3.85897 114.092 2.47184 115.557 1.4962C117.023 0.520562 118.745 0 120.505 0C122.266 0 123.988 0.520562 125.453 1.4962C126.919 2.47184 128.063 3.85897 128.742 5.48311L157.786 74.9142L232.812 81.066C234.565 81.2117 236.237 81.8722 237.616 82.9645C238.995 84.0568 240.021 85.5322 240.564 87.2054C241.107 88.8786 241.144 90.6749 240.669 92.3687C240.194 94.0624 239.229 95.5781 237.895 96.7252L180.819 145.785L198.15 219.024C198.555 220.737 198.444 222.531 197.831 224.182C197.218 225.832 196.131 227.264 194.706 228.298C193.281 229.332 191.582 229.922 189.823 229.993C188.063 230.064 186.322 229.613 184.818 228.698L120.505 189.598Z" fill="black"/>
</svg>
