<svg width="28" height="32" viewBox="0 0 28 32" fill="none" xmlns="http://www.w3.org/2000/svg">
<path d="M2 8.00008H4.66667M4.66667 8.00008H26M4.66667 8.00008V26.6667C4.66667 27.374 4.94762 28.0523 5.44772 28.5524C5.94781 29.0525 6.62609 29.3334 7.33333 29.3334H20.6667C21.3739 29.3334 22.0522 29.0525 22.5523 28.5524C23.0524 28.0523 23.3333 27.374 23.3333 26.6667V8.00008M8.66667 8.00008V5.33341C8.66667 4.62617 8.94762 3.94789 9.44772 3.4478C9.94781 2.9477 10.6261 2.66675 11.3333 2.66675H16.6667C17.3739 2.66675 18.0522 2.9477 18.5523 3.4478C19.0524 3.94789 19.3333 4.62617 19.3333 5.33341V8.00008M11.3333 14.6667V22.6667M16.6667 14.6667V22.6667" stroke="#0A859A" stroke-width="4" stroke-linecap="round" stroke-linejoin="round"/>
</svg>
