<svg width="50" height="50" viewBox="0 0 50 50" fill="none" xmlns="http://www.w3.org/2000/svg">
<path d="M17.6426 0.5C20.5527 0.498423 23.4123 1.24284 25.9531 2.65918L26.457 2.95117C28.9543 4.45686 31.0269 6.57715 32.4834 9.1084L32.7666 9.61914C34.1401 12.2044 34.8354 15.0969 34.792 18.0225L34.7734 18.6074C34.6313 21.5362 33.7516 24.377 32.2207 26.8633L31.9062 27.3555H31.9053C31.7729 27.5554 31.7039 27.7902 31.7061 28.0283L31.7119 28.1299C31.7344 28.3683 31.8274 28.5943 31.9785 28.7783L32.0469 28.8545L32.0498 28.8584L48.3291 45.2402C48.4964 45.4087 48.6378 45.601 48.749 45.8105L48.8496 46.0254C48.9705 46.3193 49.0332 46.6348 49.0332 46.9531C49.0332 47.1918 48.9982 47.4288 48.9297 47.6562L48.8496 47.8799C48.7297 48.1714 48.5536 48.4357 48.333 48.6592C47.8735 49.0954 47.267 49.3389 46.6367 49.3389C46.0837 49.3388 45.5485 49.1521 45.1152 48.8115L44.9355 48.6562L28.667 32.2744C28.5857 32.1912 28.4925 32.1209 28.3906 32.0654L28.2832 32.0137C28.1403 31.954 27.9869 31.9232 27.832 31.9238H27.8213C27.6437 31.9238 27.4694 31.9652 27.3115 32.043L27.165 32.1289C25.1092 33.5112 22.7827 34.4289 20.3457 34.8203L19.8564 34.8906C17.2419 35.2331 14.5842 34.9639 12.0898 34.1035C9.75135 33.2968 7.6154 31.9909 5.82715 30.2773L5.47363 29.9297C3.73237 28.1621 2.39237 26.0371 1.54395 23.7021L1.38086 23.2324C0.598321 20.8699 0.333666 18.3665 0.601562 15.8945L0.662109 15.4014C1.00109 12.9345 1.86505 10.5721 3.19336 8.47656L3.46582 8.06055C4.85576 6.00126 6.67037 4.27114 8.7832 2.98633L9.20996 2.73535C11.3621 1.51046 13.7498 0.769725 16.209 0.561523L16.7012 0.526367H16.7021C16.857 0.517471 17.0146 0.511286 17.1719 0.506836L17.6426 0.5ZM19.7881 3.69727C16.4301 3.1837 13.0049 3.90496 10.1367 5.72168L9.86035 5.90137C6.93773 7.8495 4.83857 10.821 3.96973 14.2383C3.12808 17.5489 3.4992 21.0501 5.00781 24.1035L5.15723 24.3975C6.73928 27.4216 9.34784 29.7689 12.5029 31.0146L12.8096 31.1318C16.1016 32.3437 19.723 32.2798 22.9717 30.9551L22.9727 30.9561C24.7267 30.2458 26.3191 29.1839 27.6533 27.8359L27.6523 27.835C30.0547 25.4199 31.5122 22.2196 31.7627 18.8193L31.7832 18.4902C31.9558 15.0773 30.902 11.7191 28.8213 9.02734L28.6172 8.76855C26.4704 6.12045 23.4502 4.34162 20.1123 3.75098L19.7881 3.69727Z" fill="black" stroke="#BEE3DB"/>
</svg>
